<svg width="36" height="36" viewBox="0 0 36 36" fill="none" xmlns="http://www.w3.org/2000/svg">
<g clip-path="url(#clip0_13_26)">
<path d="M16.5 23.901C13.6739 23.5179 11.0987 22.0758 9.29528 19.8665C7.49183 17.6571 6.59465 14.8454 6.7852 11.9998C6.97574 9.15418 8.23978 6.48713 10.3217 4.53795C12.4036 2.58877 15.1481 1.50293 18 1.50001C20.8555 1.49725 23.6051 2.58042 25.6915 4.5299C27.7779 6.47938 29.0449 9.1493 29.2357 11.9984C29.4265 14.8474 28.5267 17.6624 26.7189 19.8727C24.911 22.0829 22.3303 23.523 19.5 23.901V27H27V30H19.5V36H16.5V30H9.00001V27H16.5V23.901ZM18 21C20.188 21 22.2865 20.1308 23.8336 18.5836C25.3808 17.0365 26.25 14.938 26.25 12.75C26.25 10.562 25.3808 8.46355 23.8336 6.91638C22.2865 5.3692 20.188 4.50001 18 4.50001C15.812 4.50001 13.7136 5.3692 12.1664 6.91638C10.6192 8.46355 9.75001 10.562 9.75001 12.75C9.75001 14.938 10.6192 17.0365 12.1664 18.5836C13.7136 20.1308 15.812 21 18 21Z" fill="#C300C7"/>
</g>
<defs>
<clipPath id="clip0_13_26">
<rect width="36" height="36" fill="white"/>
</clipPath>
</defs>
</svg>
